<svg width="46" height="20" viewBox="0 0 46 20" xmlns="http://www.w3.org/2000/svg"><title>code</title><g fill="#FD746C" fill-rule="evenodd"><path d="M5.084 10.156l7.781 4.313c.39.219.65.414.78.586.128.172.193.39.193.656 0 .336-.121.627-.363.873-.243.246-.524.37-.844.37-.211 0-.527-.118-.95-.352L.092 10.156l11.59-6.445c.423-.227.735-.34.938-.34.328 0 .613.121.856.363.242.243.363.532.363.868 0 .265-.065.484-.193.656-.13.172-.39.367-.78.586l-7.781 4.312zm21.867-8.039l-7.699 16.594c-.195.414-.371.684-.527.809-.204.164-.45.246-.739.246a1.17 1.17 0 0 1-.85-.352c-.238-.234-.357-.5-.357-.797 0-.21.094-.52.282-.926L24.783 1.11c.196-.414.367-.683.516-.808.21-.164.457-.246.738-.246.328 0 .61.115.844.345.234.23.351.495.351.791 0 .211-.093.52-.28.926zM40.94 10.156l-7.782-4.312c-.39-.219-.65-.414-.78-.586-.128-.172-.192-.39-.192-.656 0-.336.12-.625.363-.868a1.17 1.17 0 0 1 .855-.363c.203 0 .516.113.938.34l11.59 6.445-11.59 6.446c-.422.234-.735.351-.938.351a1.17 1.17 0 0 1-.855-.363 1.197 1.197 0 0 1-.363-.88c0-.265.064-.483.193-.655.129-.172.389-.367.78-.586l7.78-4.313z"/></g></svg>